<svg width="800" height="320" viewBox="0 0 800 320" xmlns="http://www.w3.org/2000/svg" role="img" aria-label="Ram 1500 side view illustration">
  <rect width="800" height="320" rx="32" fill="#f5f5f5"/>
  <path d="M82 206h84l50-45c16-14 36-21 57-21h144c30 0 58 10 81 29l42 37h178v36H82z" fill="#181818"/>
  <path d="M176 206h166v-31c0-18-14-32-31-32h-66c-16 0-31 7-42 19z" fill="#232323"/>
  <path d="M366 206h145v-26c0-15-12-28-27-28h-77c-23 0-41 18-41 41z" fill="#232323"/>
  <circle cx="236" cy="242" r="45" fill="#0f0f0f"/>
  <circle cx="578" cy="242" r="45" fill="#0f0f0f"/>
  <circle cx="236" cy="242" r="20" fill="#d8d8d8"/>
  <circle cx="578" cy="242" r="20" fill="#d8d8d8"/>
</svg>
